/* XPM */
static char * west3_xpm[] = {
"64 64 620 2",
"  	c #4B4664",
". 	c #4F4A69",
"+ 	c #4E4968",
"@ 	c #45415D",
"# 	c #413D58",
"$ 	c #46425E",
"% 	c #4D4867",
"& 	c #423E59",
"* 	c #4E4867",
"= 	c #413D57",
"- 	c #433F5B",
"; 	c #46415E",
"> 	c #433D5A",
", 	c #484160",
"' 	c #423C58",
") 	c #413B58",
"! 	c #47405E",
"~ 	c #46405D",
"{ 	c #423C59",
"] 	c #453F5D",
"^ 	c #47415F",
"/ 	c #3D3853",
"( 	c #403B57",
"_ 	c #403B58",
": 	c #443E5C",
"< 	c #433E5B",
"[ 	c #3A364F",
"} 	c #413C58",
"| 	c #3F3B57",
"1 	c #433D5B",
"2 	c #453F5C",
"3 	c #39354F",
"4 	c #413C59",
"5 	c #463F5D",
"6 	c #3C3752",
"7 	c #3F3B56",
"8 	c #3E3A55",
"9 	c #3A3650",
"0 	c #423D5A",
"a 	c #39364F",
"b 	c #302E44",
"c 	c #38344E",
"d 	c #38354E",
"e 	c #2F2C42",
"f 	c #36334B",
"g 	c #39354E",
"h 	c #302D43",
"i 	c #353149",
"j 	c #343048",
"k 	c #38344D",
"l 	c #2E2B41",
"m 	c #36334C",
"n 	c #302D44",
"o 	c #332F47",
"p 	c #2E2C41",
"q 	c #35324A",
"r 	c #333048",
"s 	c #4C4765",
"t 	c #4D4866",
"u 	c #443F5B",
"v 	c #44405B",
"w 	c #47425F",
"x 	c #484360",
"y 	c #4E4868",
"z 	c #44405C",
"A 	c #433F5A",
"B 	c #443E5B",
"C 	c #3F3955",
"D 	c #474160",
"E 	c #494261",
"F 	c #443F5C",
"G 	c #413C57",
"H 	c #3B3751",
"I 	c #423D59",
"J 	c #3F3A56",
"K 	c #2F2D42",
"L 	c #322F46",
"M 	c #343148",
"N 	c #403A57",
"O 	c #363149",
"P 	c #3C3852",
"Q 	c #2D2B40",
"R 	c #312E45",
"S 	c #36324B",
"T 	c #47435F",
"U 	c #4A4563",
"V 	c #403C56",
"W 	c #484461",
"X 	c #3B3851",
"Y 	c #4A4663",
"Z 	c #3F3C55",
"` 	c #494462",
" .	c #47405F",
"..	c #4A4463",
"+.	c #3B3750",
"@.	c #3F3C56",
"#.	c #46425F",
"$.	c #403D57",
"%.	c #3E3B54",
"&.	c #433C59",
"*.	c #46405E",
"=.	c #494362",
"-.	c #4C4665",
";.	c #4C4664",
">.	c #4D4766",
",.	c #4F4A68",
"'.	c #403A55",
").	c #4E4967",
"!.	c #4B4563",
"~.	c #463F5E",
"{.	c #3C3751",
"].	c #48415F",
"^.	c #3E3954",
"/.	c #38334C",
"(.	c #4A4561",
"_.	c #4D4765",
":.	c #494361",
"<.	c #37324B",
"[.	c #453E5D",
"}.	c #3D3954",
"|.	c #3C3853",
"1.	c #3B3852",
"2.	c #37334C",
"3.	c #504B69",
"4.	c #514C6B",
"5.	c #514D6B",
"6.	c #44415C",
"7.	c #534F6E",
"8.	c #524D6C",
"9.	c #504B6A",
"0.	c #494360",
"a.	c #403A56",
"b.	c #3A3751",
"c.	c #413E59",
"d.	c #3E3A54",
"e.	c #4A4462",
"f.	c #544F6E",
"g.	c #312D44",
"h.	c #4D4967",
"i.	c #4F4967",
"j.	c #484260",
"k.	c #3F3B55",
"l.	c #3B3752",
"m.	c #333047",
"n.	c #3B3850",
"o.	c #494562",
"p.	c #3F3A55",
"q.	c #494561",
"r.	c #2E2A41",
"s.	c #443D5B",
"t.	c #3D3953",
"u.	c #4B4564",
"v.	c #3E3A56",
"w.	c #4A4362",
"x.	c #474360",
"y.	c #614E5E",
"z.	c #734F41",
"A.	c #754F39",
"B.	c #644E5B",
"C.	c #343149",
"D.	c #4D4966",
"E.	c #443240",
"F.	c #4F3134",
"G.	c #6F463D",
"H.	c #72483C",
"I.	c #5E3830",
"J.	c #6D4439",
"K.	c #6D453D",
"L.	c #5B3B3B",
"M.	c #3D2E3F",
"N.	c #5A4A62",
"O.	c #704B4C",
"P.	c #75483A",
"Q.	c #684B56",
"R.	c #4D4664",
"S.	c #403D56",
"T.	c #45415C",
"U.	c #3A374F",
"V.	c #644E5A",
"W.	c #774D28",
"X.	c #754A28",
"Y.	c #834B28",
"Z.	c #784E28",
"`.	c #684E55",
" +	c #36334A",
".+	c #39374E",
"++	c #514D6C",
"@+	c #332C41",
"#+	c #65413E",
"$+	c #7C4D3B",
"%+	c #683C2C",
"&+	c #673B2B",
"*+	c #774937",
"=+	c #724533",
"-+	c #714433",
";+	c #5F3F3E",
">+	c #37354C",
",+	c #5B4A60",
"'+	c #764836",
")+	c #744430",
"!+	c #8E452F",
"~+	c #774631",
"{+	c #6D4A4E",
"]+	c #323046",
"^+	c #37354B",
"/+	c #4B4158",
"(+	c #71462F",
"_+	c #663729",
":+	c #974028",
"<+	c #C75826",
"[+	c #6A3C29",
"}+	c #754C2C",
"|+	c #514459",
"1+	c #3A354F",
"2+	c #514C6A",
"3+	c #5E3932",
"4+	c #6C402F",
"5+	c #66423E",
"6+	c #72473E",
"7+	c #68392B",
"8+	c #773729",
"9+	c #CF5B26",
"0+	c #7E3929",
"a+	c #73432F",
"b+	c #584455",
"c+	c #3E3953",
"d+	c #5A465A",
"e+	c #643429",
"f+	c #592D23",
"g+	c #D75A24",
"h+	c #EA8F24",
"i+	c #723426",
"j+	c #693B29",
"k+	c #644E59",
"l+	c #39344D",
"m+	c #3D3753",
"n+	c #504C6A",
"o+	c #603F3E",
"p+	c #663B2A",
"q+	c #734634",
"r+	c #83523E",
"s+	c #704231",
"t+	c #82513E",
"u+	c #462E38",
"v+	c #3E3853",
"w+	c #56465E",
"x+	c #68382A",
"y+	c #5D3025",
"z+	c #AF3B23",
"A+	c #EF8F22",
"B+	c #954025",
"C+	c #663629",
"D+	c #684851",
"E+	c #584155",
"F+	c #52291F",
"G+	c #56251B",
"H+	c #EC8023",
"I+	c #F0C024",
"J+	c #A03E1F",
"K+	c #63454C",
"L+	c #3F3A54",
"M+	c #46425D",
"N+	c #3A2E41",
"O+	c #7A4C3B",
"P+	c #7E4E3C",
"Q+	c #885540",
"R+	c #7D4C38",
"S+	c #8C5842",
"T+	c #744633",
"U+	c #85523D",
"V+	c #784936",
"W+	c #7D4D3B",
"X+	c #61382B",
"Y+	c #342C41",
"Z+	c #48445F",
"`+	c #423D58",
" @	c #52445E",
".@	c #5B2F24",
"+@	c #49231A",
"@@	c #CA6121",
"#@	c #F1C024",
"$@	c #CF6022",
"%@	c #562B21",
"&@	c #614451",
"*@	c #46435F",
"=@	c #4F3E54",
"-@	c #7F2E1D",
";@	c #F0B723",
">@	c #F2D525",
",@	c #BF6A20",
"'@	c #4C251C",
")@	c #5D3F4C",
"!@	c #423F5A",
"~@	c #38354D",
"{@	c #2E2A40",
"]@	c #6D402F",
"^@	c #8A5741",
"/@	c #744533",
"(@	c #8B5741",
"_@	c #7D4E3C",
":@	c #563A3F",
"<@	c #4C4865",
"[@	c #484460",
"}@	c #514560",
"|@	c #4A241B",
"1@	c #E58B24",
"2@	c #F2E326",
"3@	c #DF8722",
"4@	c #5A4151",
"5@	c #4C3D53",
"6@	c #80351D",
"7@	c #F1CE24",
"8@	c #F2E526",
"9@	c #B1661F",
"0@	c #563C4B",
"a@	c #534E6E",
"b@	c #75493C",
"c@	c #724432",
"d@	c #794936",
"e@	c #895640",
"f@	c #683C2B",
"g@	c #6B443D",
"h@	c #4E4A68",
"i@	c #4F4661",
"j@	c #EEAE24",
"k@	c #F2E826",
"l@	c #DAA422",
"m@	c #503D4F",
"n@	c #4D3E54",
"o@	c #472219",
"p@	c #5C4757",
"q@	c #918B7C",
"r@	c #91917C",
"s@	c #5F4C58",
"t@	c #533A4A",
"u@	c #362D41",
"v@	c #8B5842",
"w@	c #6F4231",
"x@	c #784B3C",
"y@	c #4F4662",
"z@	c #452E35",
"A@	c #887B7A",
"B@	c #92917D",
"C@	c #7B716E",
"D@	c #4F3F56",
"E@	c #381713",
"F@	c #3D2C36",
"G@	c #5D627C",
"H@	c #565C75",
"I@	c #3A2831",
"J@	c #3F1C16",
"K@	c #473340",
"L@	c #8A5641",
"M@	c #7F4E3A",
"N@	c #704331",
"O@	c #4E425B",
"P@	c #331411",
"Q@	c #5B5E77",
"R@	c #595F79",
"S@	c #454152",
"T@	c #371713",
"U@	c #4E3847",
"V@	c #443447",
"W@	c #4F4355",
"X@	c #493C4D",
"Y@	c #4C323E",
"Z@	c #2D2B3F",
"`@	c #86533E",
" #	c #37344C",
".#	c #312F45",
"+#	c #353349",
"@#	c #423F59",
"##	c #3B3650",
"$#	c #473A50",
"%#	c #341511",
"&#	c #46333F",
"*#	c #5A4F64",
"=#	c #412831",
"-#	c #343248",
";#	c #453A52",
">#	c #4B323D",
",#	c #4A2E37",
"'#	c #4D3849",
")#	c #484361",
"!#	c #484261",
"~#	c #4B4764",
"{#	c #483E53",
"]#	c #816D82",
"^#	c #866F83",
"/#	c #7D6A81",
"(#	c #836E82",
"_#	c #806C81",
":#	c #7F6B81",
"<#	c #4C4461",
"[#	c #472A32",
"}#	c #5B3C48",
"|#	c #3F2B39",
"1#	c #5A5A71",
"2#	c #4C4A5D",
"3#	c #443448",
"4#	c #49455D",
"5#	c #827C9E",
"6#	c #413B57",
"7#	c #4A425E",
"8#	c #4B4456",
"9#	c #5D5F78",
"0#	c #413040",
"a#	c #413347",
"b#	c #433F57",
"c#	c #726E8E",
"d#	c #3D3955",
"e#	c #45384D",
"f#	c #322F45",
"g#	c #39364E",
"h#	c #45405C",
"i#	c #41313F",
"j#	c #6F4738",
"k#	c #724939",
"l#	c #6D4434",
"m#	c #6F4536",
"n#	c #714B41",
"o#	c #6F5359",
"p#	c #6C5056",
"q#	c #724839",
"r#	c #6B4232",
"s#	c #4A4662",
"t#	c #37344B",
"u#	c #312E44",
"v#	c #3C3953",
"w#	c #45394E",
"x#	c #453A53",
"y#	c #52282C",
"z#	c #3F1C1D",
"A#	c #814F3B",
"B#	c #8A615E",
"C#	c #877E9F",
"D#	c #9484A1",
"E#	c #80503C",
"F#	c #45415B",
"G#	c #3B3550",
"H#	c #4C4561",
"I#	c #3A1918",
"J#	c #562B30",
"K#	c #493F58",
"L#	c #371716",
"M#	c #351614",
"N#	c #7E4D39",
"O#	c #8E81A0",
"P#	c #A189A3",
"Q#	c #433C5A",
"R#	c #4A415C",
"S#	c #433549",
"T#	c #3D354C",
"U#	c #362B3E",
"V#	c #392E43",
"W#	c #382C40",
"X#	c #362A3D",
"Y#	c #382D41",
"Z#	c #3C354C",
"`#	c #8A605C",
" $	c #967E96",
".$	c #957C92",
"+$	c #8F7B94",
"@$	c #3E3851",
"#$	c #392D42",
"$$	c #352A3C",
"%$	c #393045",
"&$	c #2C2A3E",
"*$	c #29273A",
"=$	c #916560",
"-$	c #8D6970",
";$	c #917383",
">$	c #83513C",
",$	c #29273B",
"'$	c #3E3955",
")$	c #4D4767",
"!$	c #433E5A",
"~$	c #4F4969",
"{$	c #895641",
"]$	c #927688",
"^$	c #88636A",
"/$	c #917381",
"($	c #895540",
"_$	c #804F3A",
":$	c #865C56",
"<$	c #8A6A73",
"[$	c #875748",
"}$	c #87543F",
"|$	c #3A3651",
"1$	c #88553F",
"2$	c #85533E",
"3$	c #2D2A3F",
"4$	c #35314A",
"5$	c #84523D",
"6$	c #4F4A6A",
"7$	c #494461",
"8$	c #3E3B55",
"9$	c #804F3B",
"0$	c #453F5B",
"a$	c #3E3854",
"b$	c #826E82",
"c$	c #806C82",
"d$	c #37344D",
"e$	c #38344C",
"f$	c #2E2B40",
"g$	c #423E58",
"h$	c #704738",
"i$	c #6B4133",
"j$	c #683E2E",
"k$	c #6B4132",
"l$	c #6F4638",
"m$	c #804E3A",
"n$	c #82503B",
"o$	c #82513C",
"p$	c #3B3651",
"q$	c #36324A",
"r$	c #403C57",
"s$	c #7B4B37",
"t$	c #6F412F",
"u$	c #764734",
"v$	c #6C3F2D",
"w$	c #6B3E2D",
"x$	c #6B3E2C",
"y$	c #3A344E",
"z$	c #2C283F",
"A$	c #3D2E3E",
"B$	c #71483D",
"C$	c #825344",
"D$	c #5C352E",
"E$	c #815240",
"F$	c #5C3428",
"G$	c #825241",
"H$	c #835445",
"I$	c #683E33",
"J$	c #794B3A",
"K$	c #734737",
"L$	c #6D4338",
"M$	c #80503F",
"N$	c #5F372A",
"O$	c #6C453C",
"P$	c #2D2A40",
"Q$	c #312D45",
"R$	c #433F59",
"S$	c #625A72",
"T$	c #595269",
"U$	c #5B536A",
"V$	c #5E566E",
"W$	c #595169",
"X$	c #615971",
"Y$	c #554D64",
"Z$	c #514A60",
"`$	c #534C63",
" %	c #534B62",
".%	c #585067",
"+%	c #50485F",
"@%	c #5C546C",
"#%	c #544D64",
"$%	c #453E54",
"%%	c #524B62",
"&%	c #564E66",
"*%	c #574F66",
"=%	c #463F55",
"-%	c #554E65",
";%	c #4A4359",
">%	c #4C445B",
",%	c #524A61",
"'%	c #4E465D",
")%	c #484157",
"!%	c #443D53",
"~%	c #4D455C",
"{%	c #423A51",
"]%	c #575067",
"^%	c #514A61",
"/%	c #544C63",
"(%	c #514960",
"_%	c #4B445A",
":%	c #5F576F",
"<%	c #564E65",
"[%	c #5F586F",
"}%	c #534C62",
"|%	c #5D556D",
"1%	c #5B536B",
"2%	c #5A5269",
"3%	c #4B435A",
"4%	c #585168",
"5%	c #484057",
"6%	c #595168",
"7%	c #50495F",
"8%	c #474056",
"9%	c #564F66",
"0%	c #3F384E",
"a%	c #3F374E",
"b%	c #5A526A",
"c%	c #3B334A",
"d%	c #615970",
"e%	c #574F67",
"f%	c #413A50",
"g%	c #40384F",
"h%	c #40384E",
"i%	c #4A4259",
"j%	c #494158",
"k%	c #3D364C",
"l%	c #3B344A",
"m%	c #5F576E",
"n%	c #605870",
"o%	c #5C546B",
"p%	c #423B51",
"q%	c #5D556C",
"r%	c #5D566D",
"s%	c #4F485E",
"t%	c #40394F",
"u%	c #605970",
"v%	c #494258",
"w%	c #4F475E",
"x%	c #5A536A",
"y%	c #463E55",
"z%	c #534B63",
"A%	c #4E475D",
"B%	c #4D465C",
"C%	c #4C455B",
"  . . . + @ . . . . # . . . . $   . . . % @ . . . . & . . . . $   . . . * @ . . . . = . . . . $ + . . . % @ . . . . - . . . . ; ",
"> , , , , ' , , , , ) , , , , ! ~ , , , , ) , , , , ) , , , , { ] , , , , ) , , , , ' , , , , { ^ , , , , ) , , , , ' , , , , { ",
"/ ( _ : < [ } | 1 2 3 } | 4 5 6 7 ( _ 2 < [ } | 1 2 3 } | { 5 6 8 ( _ 2 < 9 } | 1 2 3 } | { 5 6 ( ( _ 2 0 9 } | 1 2 a 4 | { 5 6 ",
"b c d d d e f g d d h i g d d j b d d d k l m g d d n i g d d j b c d d c e f g d d e i g d d j o d d d k p m g g d e q g d d r ",
". . . s @ . . . . # + . . . t u . . . . - + . . . * v . . . . w x . . . y & . . . .   z . . . . A . . . . t @ . . . . & + . . . ",
", , , , B , , , , C , , , , , ' , , , , ' D , , , , ) , , , , E ' , , , , F , , , , , G , , , , ' , , , , , ) , , , , ' , , , , ",
"| 4 ] { 9 } | 1 5 k } ( } ] < [ } | > 5 H ( ( _ : B 3 4 | I 5 J H _ ( B 2 k 4 | 4 ] { 9 _ ( < ] 9 } | } ] I 9 } | > 5 9 _ ( _ 2 ",
"d d d k l c d d d e q d d d d K k d d d L M d d d d M ) { N J O > ] 1 ) P l m d d d k Q d d d d R S d d d k e k d d d R q d d d ",
"T U U U T V U U U W X U U U Y V T U U U w Z U U ` B  . . . . .N , ..,  . .{ ; U U W +.U U U Y @.T U U U #.$.U U U W %.U U U U %.",
"&., , , , { , , , , > , , , , ^ *., , , , {  .C  .=.-.;.;.>.,.'.).,.,.!. . .~.{. ., > , , , , { ]., , , , { , , , , > , , , , { ",
"J 0 >  .] H 1 I 5 ^ 9 < { : , ^.{ 0 >  .5 9 N /., ,.,.,.,.,.,.(.,.,.,.,.)._.:.<.[. .9 B { : , ^.{ 0 >  .] H > 0 5  .H B { : , }.",
"f }.}.}.}.M }.|.|.}.i 1.}.}.}.k 2.}.}.}.}.^. .> v ,.,.,.3.4.5.6.7.8.9.,.,.,.0.a. .[.M 1.}.}.}.k a }.}.}.}.j }.}.P }.j P }.}.}.k ",
"U U U z $.$ a H k b.c.U U U @ d.U U U W G  .e.,.A . f.).@ d.[ g.k [ z h.f.. = ,.i.j.J $.U U U x %.` U U U k.2.l.m.l.@.n.o.U U U ",
", , , , k.}.I : p.^ ( ( , , , { , , , ~.~., ).,.q.& i r.r.r.r.r.r.r.r.r.k W T ,.,.s  .s., , , , { , , , B }.} ] p., I t., , , , ",
"{ B ^ < _ *., u.~ ,  .v._  .5 H B { ] 5  .t ,.9.W r.r.r.r.r.r.r.r.r.r.r.r.r.# 8.,.,., ~.I 0 5 , 6 < I 0 | 5 , w.x., , | 8 0 >  .",
"}.}.|.8 , E y.z.A.B...5 t.l.}.C.}.}.}  .t ,.. D.r.r.r.E.F.G.H.I.J.K.L.M.r.r.r.o.3.,.!. .J }.}.}.f P }.}., E N.O.P.Q.R. .v.|.}.}.",
"S.T.U.^., V.W.X.Y.Z.`.E _  +& .+S.T.> ;.,.,.++g.r.@+#+$+%+$+$+&+*+$+=+-+;+r.r.g.4.,.). .) T.& >+S.T.X b., ,+'+)+!+~+{+w.< ]+& ^+",
"B , ^.[ /+(+_+:+<+[+}+|+1+8 ,  .^ ]  .t ,.2+c.r.r.3+$+$+4+$+$+4+$+$+=+=+$+5+r.r.P 8.,.s  .: , > , , ( H G 6+7+8+9+0+a+b+c+P , > ",
"{ 2 }., d+e+f+g+h+i+j+k+, ( , a.] l+m+;.,.n+r.r.o+p+$+$+q+r+r+s+r+t+*+=+$+$+u+r.r.).,._.v+l+, J ] 2 }.*.w+x+y+z+A+B+C+D+, { 5 J ",
"g }.l.~.E+F+G+H+I+J+y+K+, } J g 9 J s.L+M+7 r.N+O+p+P+Q+R+S+S+T+S+S+U+V+W+$+X+Y+r.V Z+`+{ > 7 d |.}.}.]  @.@+@@@#@$@%@&@, > J d ",
"*@W }. .=@+@-@;@>@,@'@)@, v.!@~@T > ..,.8.{@r.o+$+]@^@S+R+S+S+/@(@S+U+R+^@_@&+:@r.r.<@,.;.~.[@$.~@*@| ~.}@|@+@1@2@3@+@4@, } $ z ",
", , 8 , 5@+@6@7@8@9@+@0@, }., B , ~...,.a@r.r.b@$+c@S+S+R+S+S+d@e@S+U+R+S+Q+f@g@r.r.h@,.,. ., , > , | ^ i@+@+@j@k@l@+@m@, | ~., ",
": *.| , n@o@p@q@r@s@+@t@, }. ./ {  ...,.h@r.u@$+r+T+S+S+R+S+S+R+v@S+U+R+S+S+w@x@r.r.s ,.,. ., , ^.*.( , y@+@z@A@B@C@o@m@, | B , ",
"}.}.}.^ D@E@F@G@H@I@J@t@, J 8 k J  .;.,.h@r.K@$+L@T+S+S+M@S+S+R+S+S+U+R+S+S+N@$+r.r.o.,.). .J J g }.}.*.O@J@P@Q@R@S@T@U@, ( }.v.",
"~@!@b 6 V@P@P@W@X@P@P@Y@^.M ~@Z@a  .t ,.h@r.K@P+S+/@S+S+U+S+S+R+S+S+`@R+S+S+T+$+r.r.o.,.>. . #.#+#@#M ##$#%#P@&#*#P@P@=#J i -#.#",
"^ , g , ;#P@P@>#,#P@P@'#, ( ..)#!# .,.,.~#r.{#]#^#/#^#^#(#^#^#_#^#^#^#_#^#^#:#]#r.r.o.,.;. .F ; :., J *.<#P@P@[#}#P@P@|#, { :.; ",
"<  .|. .;#P@P@1#2#P@P@3#, 4 , > *.E ,.,.o.r.4#5#5#5#5#5#5#5#5#5#5#5#5#5#5#5#5#5#r.r.o.,._. .{ 6#D  .J ] 7#P@P@8#9#P@P@0#, 1 ~.6#",
"3 }.}. .;#P@P@1#2#P@P@a#, J { 9 ^. .).,.o.r.b#c#c#c#c#c#c#c#c#c#c#c#c#c#c#c#c#c#r.r.o.,.). .^.3 d#}.}.] 7#P@P@8#9#P@P@e#, } } 3 ",
"k.k.8 , ;#P@P@1#2#P@P@a#, }.X f#g#s.h#).# r.i#j#k#l#k#k#m#n#o#p#o#k#q#m#k#k#r#j#r.r.@ s#u.) t#g#u#v#d. .<#P@P@8#9#P@P@w#, | 7 g#",
", !#| , x#P@P@y#z#P@P@a#, }.-.w > ##p.= Z r.K@r+S+A#S+S+U+B#C#D#5#S+S+U+S+S+R+E#r.r.k F#c+G#( -.w .._ , H#P@P@I#J#P@P@w#, | *.u.",
"! , 8 , K#P@P@L#M#P@P@a#, v., p.]  .t ,.<@r.K@r+S+N#S+S+U+B#O#P#C#S+S+U+S+S+R+E#r.r.q.,.). .Q#, J , |  .R#P@P@P@L#P@P@S#, } *., ",
"}.8 k _ T#U#V#W#X#V#Y#Z#_ l./ 3 (  .s ,.h@r.K@r+S+R+S+S+U+`# $.$+$S+S+U+S+S+R+E#r.r.o.,.,.E < 4 d 8 9 | @$U#V##$$$V##$%$0 t.d } ",
"l e 0 2 < a.2 B J 2 B J 2 : &$*$j  .-.,.h@r.K@r+S+R+S+S+U+=$-$E#;$S+S+U+S+S+>$E#r.r.o.,.,.j.j l ,$K ) ] B > ] : ^.] : '$] : n l ",
"  )$; . * !$~$* > ~$y !$~$y   x -. .-.,.h@r.K@r+S+R+S+S+U+{$]$^$/$S+($U+S+S+U+E#r.r.o.,.). .w x.+ >.)#+ ~$^ + ~$I y . I y . )#x.",
"> , <.r.r.r.r.r.r.r.r.r.r.r., ~ ]  .t ,.h@r.K@r+S+_$S+S+U+S+:$<$[$S+}$U+S+S+U+E#r.r.o.,._. .{ ' ^ , ##r.r.r.r.r.r.r.r.r.r.r.: ' ",
"P v.}.'$1+i 9 |$}.p.2.3 k 9 B 6 (  .,.,.  r.K@r+S+U+S+S+>$S+S+U+S+S+1$2$S+S+U+E#r.r.o.,.-. .J H ( v.8 p.9 i 3 |$}.p.2.9 k c B 9 ",
"e j j j M l j j j M 3$j j j j b i E ,.,.o.r.K@r+S+U+S+S+R+S+S+U+S+S+(@1$S+S+U+E#r.r.o.,.>. .4$n f#j j M M l j j j M 3$j j j M e ",
". . . + $ . . . . h#. . . . . $ y  .).,.o.r.K@r+S+5$S+S+R+S+S+U+S+S+S+U+S+S+U+E#r.r.o.,.i. .w . $ . . 6$. + @ . . . . @ . . . . ",
", , , , > , , , , C , , , , , 6#: a.u 7$8$r.K@r+S+9$S+S+R+S+S+U+S+S+S+U+S+S+U+E#r.r.& [@0$) a$, 6#, , , , , 6#, , , , ' ^ , , , ",
"J _ : 4 3 ( J 0 : 2.( J ( B 4 [ {.a.B [@& r.{#b$^#(#^#^#c$^#^#c$^#^#^#(#^#^#_#]#r.r.t.7$h#a.6 : 3 _ J _ B 4 a _ J { : 9 ( J ( < ",
"j j f q &$j j M d$3$r j j f q l S  .t ,.D.r.4#5#5#5#5#5#5#5#5#5#5#5#5#5#5#5#5#5#r.r.o.,.,., e$ #l j j j f q f$j j j k l o j j q ",
"$ U U U U g$U U U U k.U U U U A W  .-.,.h@r.b#c#c#c#c#c#c#c#c#c#c#c#c#c#c#c#c#c#r.r.o.,.,.E :.A o.U U U 7$$.U U U U = U U U U A ",
"> , , , , ' , , , , ' , , , , *.2  .-.,.h@r.i#h$q#i$q#q#j$q#q#m#q#q#q#k$q#q#m#l$r.r.o.,.,., Q#{ ^ , , , , ' , , , , > , , , , { ",
"'$4 0 *.: ##> 4 : *.9 > { 1 ! ^.{  .-.,.h@r.K@r+S+m$S+S+T+S+S+n$S+S+S+N#S+S+U+E#r.r.o.,.). .) / { 4 0 ~.B ##> 4 2 *.H > 4 <  ./ ",
"i d d 1.H m.d d 9 t..#d d g }.S k  .* ,.h@r.K@r+S+U+S+S+T+S+S+R+S+S+S+o$S+S+_$E#r.r.o.,.s  .p$q$d$d d P l.m.d d 9 |.o d d g }.q ",
"U U U o.r$U U U U V U U U U o.g$e.^ ,.,.Y r.K@r+S+s$S+S+/@S+S+R+S+S+e@R+S+S+R+E#r.r.o.,.;. .- U V U U U U o.$.U U U U $.7$U U U ",
", , , , B , , , , ^., , , , , ' , E ,.,.o.r.K@r+S+/@S+S+t$S+S+d@($S+U+R+S+S+u$E#r.r.o.,.t  .{ , ' , , , , , ' , , , , { , , , , ",
"{ >  .< l.0 { 2  .[ 0 { 0 *.: 9 B  .).,.o.r.K@r+S+v$S+S+w$S+S+T+U+S+_$d@S+S+x$E#r.r.o.,.). .N  .9 0 { >  .B ##> { :  .6 0 { 0 *.",
"g 3 }.l.L g d l.}.R g g g }.P m.f y$L+[@+.z$A$B$C$D$E$E$F$G$H$I$J$E$K$L$H$M$N$O$P$Q$r$R$G ##f }.m.g g 3 }.l.o g g H }.j c g g }.",
"S$S$S$T$U$S$S$S$V$W$S$S$S$X$Y$S$S$S$S$Z$S$S$S$S$`$S$S$S$S$ %S$S$S$S$U$.%S$S$S$S$+%S$S$S$S$Z$S$S$S$S$ %V$S$S$S$@%Y$S$S$S$X$Z$S$S$",
"`$U$#%$%%% %&%*%=%-%%%Y$ %;%>%,%Y$W$'%)% %;% % %!% %>%+% %=%+%Z$>%#%Y$~% %>%Z$Z${% %Z$'%]%'%^%-%>%,% %'%/%(%=% %_% %Y$>%/%'%+% %",
"X$S$S$S$Z$V$S$S$S$:% %S$S$S$S$'%X$S$S$S$X$+%S$S$S$S$~%X$S$S$S$S$>%S$S$S$S$ %X$S$S$S$S$'%S$S$S$S$T$.%S$S$S$S$+%S$S$S$S$V$Y$S$S$S$",
"S$S$S$.%V$S$S$S$S$ %S$S$S$S$:%*%S$S$S$S$<%[%S$S$S$S$Y$S$S$S$S$S$ %S$S$S$S$U$U$S$S$S$S$}%S$S$S$S$S$*%S$S$S$S$X$Y$S$S$S$S$|%1%S$S$",
"S$S$`$2%S$S$S$S$>%:%S$S$S$S$;%S$S$S$S$X$)%S$S$S$S$X$3%S$S$S$S$:%~%S$S$S$S$1%'%S$S$S$S$4%Y$S$S$S$S$*% %S$S$S$S$Z$T$S$S$S$S$,%Y$S$",
" %&% %W$U$5%`$*%#%U$T$!% %#% %.%U$>%#%Y$ %6%U$)%'% % %Y$U$+%7%`$ % %`$8%$% % % %T$9%)% %Y$`$ %'%0% % % %Y$T$a%`$U$b% %Z$c% % % %",
"S$S$S$S$b%T$S$S$S$S$d%/%S$S$S$S$S$+%S$S$S$S$S$+%S$S$S$S$S$ %V$S$S$S$S$:% %S$S$S$S$S$+%S$S$S$S$S$Z$S$S$S$S$S$e%@%S$S$S$S$V$9%S$S$",
"S$S$S$V$Y$S$S$S$S$S$,%S$S$S$S$S$T$U$S$S$S$S$S$ %S$S$S$S$S$Z$S$S$S$S$S$S$ %S$S$S$S$S$+%S$S$S$S$S$V$W$S$S$S$S$S$+%S$S$S$S$S$T$T$S$",
"U$U$<%0%U$U$U$U$6%'%{%U$U$U$U$9%c%U$U$U$U$W$'%f%W$U$U$U$.%g%9%U$U$U$U$^%h%9%U$U$U$2%{%(%U$U$U$U$#%c%/%U$U$U$U$i%j%U$U$U$U$<%k%+%",
"U$1%V$|%U$=%Y$:%S$S$S$U$l%T$U$m%n%o%<%p%q%S$S$S$r%>%s%U$V$X$V$U$=%Y$S$S$S$n%T$t%U$@%X$u%@%T$g%:%S$S$S$@%Z$v%1%n%X$:%U$3%w%S$S$S$",
"S$S$S$S$@%.%S$S$S$S$S$T$x%S$S$S$S$S$&%@%S$S$S$S$S$ %n%S$S$S$S$S$ %S$S$S$S$S$S$Z$S$S$S$S$S$S$+%S$S$S$S$S$S$Z$S$S$S$S$S$S$7%S$S$S$",
"S$S$S$V$'%S$S$S$S$S$X$'%S$S$S$S$S$S$i%S$S$S$S$S$S$v%S$S$S$S$S$S$;%S$S$S$S$S$S$ %:%S$S$S$S$S$ %T$S$S$S$S$S$U$9%S$S$S$S$S$@%(%S$S$",
">%Z$W$'%Y$U$/%>%'% %)%y% % %Z$;% %Y$'%U$-%Z$;%Z$Z$g%7% %`$z%w%/%>%.%*% %w%;% %5%)% %/%x% %,%>%A%&% % %>%B%Z${%Z$`$b%T$ %%%g%Z$ %",
"Z$S$S$S$S$S$S$3%X$S$S$S$S$S$*%-%S$S$S$S$S$S$j%S$S$S$S$S$S$ %.%S$S$S$S$S$X$;%S$S$S$S$S$S$>%U$S$S$S$S$S$V$>%S$S$S$S$S$S$)%:%S$S$S$",
"S$S$S$S$S$S$.%@%S$S$S$S$S$S$C%S$S$S$S$S$S$:%,%S$S$S$S$S$S$+%S$S$S$S$S$S$S$ %S$S$S$S$S$S$T$.%S$S$S$S$S$S$+%S$S$S$S$S$S$u%+%S$S$S$"};
